<mxfile host="app.diagrams.net" modified="2024-04-11T13:09:24.066Z" agent="Mozilla/5.0 (Macintosh; Intel Mac OS X 10_15_7) AppleWebKit/537.36 (KHTML, like Gecko) Chrome/123.0.0.0 Safari/537.36" etag="-pPM7a-vEFr2IppwTvLQ" version="24.2.3" type="device">
  <diagram name="Page-1" id="K5YqHvdRWQPV6CPSGSTy">
    <mxGraphModel dx="719" dy="425" grid="1" gridSize="10" guides="1" tooltips="1" connect="1" arrows="1" fold="1" page="1" pageScale="1" pageWidth="850" pageHeight="1100" math="0" shadow="0">
      <root>
        <mxCell id="0" />
        <mxCell id="1" parent="0" />
        <mxCell id="tfkbC1vyoVTCxEjPFUtT-5" value="" style="edgeStyle=orthogonalEdgeStyle;rounded=0;orthogonalLoop=1;jettySize=auto;html=1;" edge="1" parent="1" source="tfkbC1vyoVTCxEjPFUtT-1" target="tfkbC1vyoVTCxEjPFUtT-2">
          <mxGeometry relative="1" as="geometry" />
        </mxCell>
        <mxCell id="tfkbC1vyoVTCxEjPFUtT-1" value="Auth" style="shape=cube;whiteSpace=wrap;html=1;boundedLbl=1;backgroundOutline=1;darkOpacity=0.05;darkOpacity2=0.1;" vertex="1" parent="1">
          <mxGeometry x="80" y="190" width="200" height="200" as="geometry" />
        </mxCell>
        <mxCell id="tfkbC1vyoVTCxEjPFUtT-2" value="PostgreSQL&lt;div&gt;auth&lt;/div&gt;" style="shape=cylinder3;whiteSpace=wrap;html=1;boundedLbl=1;backgroundOutline=1;size=15;" vertex="1" parent="1">
          <mxGeometry x="145" y="430" width="70" height="80" as="geometry" />
        </mxCell>
        <mxCell id="tfkbC1vyoVTCxEjPFUtT-6" value="" style="edgeStyle=orthogonalEdgeStyle;rounded=0;orthogonalLoop=1;jettySize=auto;html=1;" edge="1" parent="1" source="tfkbC1vyoVTCxEjPFUtT-3" target="tfkbC1vyoVTCxEjPFUtT-4">
          <mxGeometry relative="1" as="geometry" />
        </mxCell>
        <mxCell id="tfkbC1vyoVTCxEjPFUtT-3" value="Orders" style="shape=cube;whiteSpace=wrap;html=1;boundedLbl=1;backgroundOutline=1;darkOpacity=0.05;darkOpacity2=0.1;" vertex="1" parent="1">
          <mxGeometry x="320" y="190" width="200" height="200" as="geometry" />
        </mxCell>
        <mxCell id="tfkbC1vyoVTCxEjPFUtT-4" value="PostgreSQL&lt;div&gt;order&lt;/div&gt;" style="shape=cylinder3;whiteSpace=wrap;html=1;boundedLbl=1;backgroundOutline=1;size=15;" vertex="1" parent="1">
          <mxGeometry x="385" y="430" width="70" height="80" as="geometry" />
        </mxCell>
        <mxCell id="tfkbC1vyoVTCxEjPFUtT-7" value="" style="edgeStyle=orthogonalEdgeStyle;rounded=0;orthogonalLoop=1;jettySize=auto;html=1;" edge="1" parent="1" source="tfkbC1vyoVTCxEjPFUtT-8" target="tfkbC1vyoVTCxEjPFUtT-9">
          <mxGeometry relative="1" as="geometry" />
        </mxCell>
        <mxCell id="tfkbC1vyoVTCxEjPFUtT-8" value="Accounts" style="shape=cube;whiteSpace=wrap;html=1;boundedLbl=1;backgroundOutline=1;darkOpacity=0.05;darkOpacity2=0.1;" vertex="1" parent="1">
          <mxGeometry x="560" y="190" width="200" height="200" as="geometry" />
        </mxCell>
        <mxCell id="tfkbC1vyoVTCxEjPFUtT-9" value="&lt;span style=&quot;color: rgb(0, 0, 0); font-family: Helvetica; font-size: 12px; font-style: normal; font-variant-ligatures: normal; font-variant-caps: normal; font-weight: 400; letter-spacing: normal; orphans: 2; text-align: center; text-indent: 0px; text-transform: none; widows: 2; word-spacing: 0px; -webkit-text-stroke-width: 0px; white-space: normal; background-color: rgb(251, 251, 251); text-decoration-thickness: initial; text-decoration-style: initial; text-decoration-color: initial; display: inline !important; float: none;&quot;&gt;PostgreSQL&lt;/span&gt;&lt;div&gt;&lt;span style=&quot;color: rgb(0, 0, 0); font-family: Helvetica; font-size: 12px; font-style: normal; font-variant-ligatures: normal; font-variant-caps: normal; font-weight: 400; letter-spacing: normal; orphans: 2; text-align: center; text-indent: 0px; text-transform: none; widows: 2; word-spacing: 0px; -webkit-text-stroke-width: 0px; white-space: normal; background-color: rgb(251, 251, 251); text-decoration-thickness: initial; text-decoration-style: initial; text-decoration-color: initial; display: inline !important; float: none;&quot;&gt;account&lt;/span&gt;&lt;/div&gt;" style="shape=cylinder3;whiteSpace=wrap;html=1;boundedLbl=1;backgroundOutline=1;size=15;" vertex="1" parent="1">
          <mxGeometry x="625" y="430" width="70" height="80" as="geometry" />
        </mxCell>
        <mxCell id="tfkbC1vyoVTCxEjPFUtT-11" value="" style="edgeStyle=orthogonalEdgeStyle;rounded=0;orthogonalLoop=1;jettySize=auto;html=1;" edge="1" parent="1" source="tfkbC1vyoVTCxEjPFUtT-10" target="tfkbC1vyoVTCxEjPFUtT-3">
          <mxGeometry relative="1" as="geometry" />
        </mxCell>
        <mxCell id="tfkbC1vyoVTCxEjPFUtT-13" value="" style="edgeStyle=orthogonalEdgeStyle;rounded=0;orthogonalLoop=1;jettySize=auto;html=1;entryX=0;entryY=0;entryDx=90;entryDy=0;entryPerimeter=0;" edge="1" parent="1" source="tfkbC1vyoVTCxEjPFUtT-10" target="tfkbC1vyoVTCxEjPFUtT-1">
          <mxGeometry relative="1" as="geometry">
            <mxPoint x="320" y="80" as="targetPoint" />
          </mxGeometry>
        </mxCell>
        <mxCell id="tfkbC1vyoVTCxEjPFUtT-15" value="" style="edgeStyle=orthogonalEdgeStyle;rounded=0;orthogonalLoop=1;jettySize=auto;html=1;entryX=0;entryY=0;entryDx=90;entryDy=0;entryPerimeter=0;" edge="1" parent="1" source="tfkbC1vyoVTCxEjPFUtT-10" target="tfkbC1vyoVTCxEjPFUtT-8">
          <mxGeometry relative="1" as="geometry">
            <mxPoint x="520" y="80" as="targetPoint" />
          </mxGeometry>
        </mxCell>
        <mxCell id="tfkbC1vyoVTCxEjPFUtT-10" value="&lt;font style=&quot;font-size: 11px;&quot;&gt;gateway&lt;br style=&quot;&quot;&gt;&lt;br style=&quot;&quot;&gt;&lt;br style=&quot;&quot;&gt;&lt;/font&gt;&lt;div style=&quot;&quot;&gt;&lt;font style=&quot;font-size: 11px;&quot;&gt;&lt;br&gt;&lt;/font&gt;&lt;/div&gt;&lt;div style=&quot;&quot;&gt;&lt;br&gt;&lt;/div&gt;" style="shape=sumEllipse;perimeter=ellipsePerimeter;whiteSpace=wrap;html=1;backgroundOutline=1;fontSize=11;" vertex="1" parent="1">
          <mxGeometry x="380" y="40" width="80" height="80" as="geometry" />
        </mxCell>
        <mxCell id="tfkbC1vyoVTCxEjPFUtT-25" value="" style="rounded=0;orthogonalLoop=1;jettySize=auto;html=1;dashed=1;" edge="1" parent="1" source="tfkbC1vyoVTCxEjPFUtT-16">
          <mxGeometry relative="1" as="geometry">
            <mxPoint x="600" y="390" as="targetPoint" />
          </mxGeometry>
        </mxCell>
        <mxCell id="tfkbC1vyoVTCxEjPFUtT-27" value="" style="rounded=0;orthogonalLoop=1;jettySize=auto;html=1;startArrow=classic;startFill=1;endArrow=none;endFill=0;dashed=1;" edge="1" parent="1" source="tfkbC1vyoVTCxEjPFUtT-16">
          <mxGeometry relative="1" as="geometry">
            <mxPoint x="480" y="390" as="targetPoint" />
          </mxGeometry>
        </mxCell>
        <mxCell id="tfkbC1vyoVTCxEjPFUtT-16" value="" style="shape=cylinder3;whiteSpace=wrap;html=1;boundedLbl=1;backgroundOutline=1;size=15;rotation=-90;dashed=1;" vertex="1" parent="1">
          <mxGeometry x="520" y="430" width="40" height="80" as="geometry" />
        </mxCell>
        <mxCell id="tfkbC1vyoVTCxEjPFUtT-28" value="Message broker" style="text;html=1;align=center;verticalAlign=middle;whiteSpace=wrap;rounded=0;fontColor=#808080;fontSize=10;" vertex="1" parent="1">
          <mxGeometry x="524" y="457" width="60" height="30" as="geometry" />
        </mxCell>
        <mxCell id="tfkbC1vyoVTCxEjPFUtT-29" value="nginx или ingress" style="text;html=1;align=center;verticalAlign=middle;whiteSpace=wrap;rounded=0;fontColor=#808080;fontSize=8;" vertex="1" parent="1">
          <mxGeometry x="391" y="92" width="60" height="30" as="geometry" />
        </mxCell>
        <mxCell id="tfkbC1vyoVTCxEjPFUtT-31" value="@vskurikhin&#39;s Накопительная система лояльности «Гофермарт»" style="text;html=1;align=center;verticalAlign=middle;whiteSpace=wrap;rounded=0;" vertex="1" parent="1">
          <mxGeometry x="236" width="370" height="30" as="geometry" />
        </mxCell>
      </root>
    </mxGraphModel>
  </diagram>
</mxfile>
